<svg width="76" height="16" viewBox="0 0 76 16" fill="none" xmlns="http://www.w3.org/2000/svg">
<g clip-path="url(#clip0_2034_1143)">
<mask id="mask0_2034_1143" style="mask-type:luminance" maskUnits="userSpaceOnUse" x="0" y="0" width="76" height="16">
<path d="M76 0H0V16H76V0Z" fill="white"/>
</mask>
<g mask="url(#mask0_2034_1143)">
<path d="M69.6875 4.94076L71.598 8.77873L75.9969 0L69.6875 4.94076Z" fill="#FFBB00"/>
<path d="M2.74544 14.3958C2.96173 14.4005 3.1778 14.3784 3.3889 14.3301C3.53513 14.2954 3.67388 14.2335 3.79823 14.1475C3.89315 14.0811 3.96709 13.9878 4.01092 13.8791C4.0516 13.767 4.07161 13.6481 4.06991 13.5286C4.06835 13.3913 4.03278 13.2567 3.96651 13.1373C3.90025 13.0179 3.80546 12.9175 3.69096 12.8457C3.28416 12.5931 2.84669 12.396 2.38975 12.2596C2.12164 12.1628 1.85353 12.0532 1.58542 11.9273C1.3259 11.8067 1.08504 11.648 0.870461 11.4562C0.654635 11.2638 0.477913 11.0299 0.350329 10.7679C0.207941 10.46 0.138737 10.1222 0.148354 9.7819C0.140824 9.42099 0.212271 9.06292 0.357479 8.73383C0.496171 8.42604 0.702262 8.15492 0.959829 7.94143C1.24083 7.71343 1.56259 7.54353 1.90715 7.44113C2.31294 7.31673 2.73468 7.25521 3.15832 7.25855C3.64101 7.25026 4.12242 7.31172 4.58823 7.44113C4.93323 7.54295 5.26691 7.68124 5.58383 7.85379L5.04759 9.34001C4.80407 9.20979 4.55063 9.0999 4.28973 9.01135C3.96166 8.91153 3.62031 8.8647 3.27808 8.87259C2.83719 8.87259 2.52022 8.93346 2.32719 9.05521C2.23235 9.11484 2.15515 9.19968 2.10384 9.30066C2.05252 9.40164 2.02902 9.51495 2.03584 9.62852C2.03123 9.76579 2.06872 9.90113 2.14308 10.0156C2.22434 10.1295 2.32703 10.2258 2.44516 10.2986C2.58677 10.3904 2.73707 10.4675 2.89379 10.5287C3.06359 10.598 3.25127 10.6674 3.45682 10.7404C3.88222 10.9011 4.25282 11.06 4.56858 11.217C4.85781 11.3553 5.12338 11.5402 5.35503 11.7648C5.56193 11.97 5.72186 12.2194 5.82334 12.4951C5.93245 12.826 5.98388 13.174 5.97526 13.5231C5.97526 14.3045 5.70774 14.9132 5.1727 15.3489C4.6377 15.7847 3.82859 16.0026 2.74544 16.0026C2.41662 16.005 2.08807 15.983 1.76237 15.9368C1.50147 15.8984 1.24303 15.8441 0.988431 15.7743C0.790509 15.7189 0.596441 15.65 0.407526 15.568C0.268243 15.5066 0.132214 15.4377 0 15.3617L0.520133 13.8645C0.809016 14.0179 1.11271 14.1403 1.42634 14.2297C1.85617 14.3483 2.30027 14.4043 2.74544 14.3958Z" fill="white"/>
<path d="M6.82812 7.89185L8.58333 7.60156V9.47491H10.7085V10.9739H8.58333V13.2088C8.56748 13.5254 8.63472 13.8406 8.77818 14.1217C8.90803 14.3457 9.17019 14.4583 9.56463 14.4595C9.76122 14.4589 9.95741 14.4405 10.1509 14.4047C10.3416 14.3695 10.5283 14.315 10.7085 14.2422L10.957 15.6445C10.7248 15.7398 10.4858 15.8167 10.242 15.8745C9.93229 15.9451 9.61566 15.9795 9.29831 15.9768C8.89084 15.9903 8.48471 15.9227 8.10254 15.7777C7.80871 15.6635 7.54799 15.475 7.34467 15.23C7.14892 14.9775 7.01364 14.6817 6.94965 14.3664C6.8713 13.9969 6.83352 13.6197 6.83706 13.2416L6.82812 7.89185Z" fill="white"/>
<path d="M14.0015 9.31395C14.4426 9.30202 14.8828 9.3637 15.3045 9.49653C15.6186 9.59537 15.9045 9.77082 16.1374 10.0078C16.3498 10.2397 16.5022 10.5221 16.5807 10.8294C16.6715 11.1802 16.7154 11.542 16.7112 11.9049V15.6515C16.4591 15.7081 16.107 15.7757 15.6584 15.8524C15.1182 15.9341 14.5725 15.972 14.0265 15.9656C13.6586 15.9697 13.2912 15.9336 12.9308 15.8578C12.6286 15.793 12.3415 15.669 12.0854 15.4926C11.8538 15.3287 11.6689 15.105 11.5492 14.8445C11.4134 14.5417 11.3463 14.2116 11.3526 13.8786C11.3419 13.5503 11.4172 13.2251 11.5706 12.9365C11.7102 12.683 11.91 12.4695 12.1515 12.3157C12.4112 12.1573 12.6952 12.0449 12.9916 11.9834C13.3143 11.9146 13.6432 11.8804 13.9729 11.8811C14.1765 11.8801 14.3799 11.8904 14.5824 11.9121C14.7284 11.9261 14.8731 11.9524 15.0149 11.9906V11.8209C15.02 11.6866 14.9984 11.5526 14.9514 11.4271C14.9044 11.3016 14.833 11.1871 14.7415 11.0905C14.5627 10.9079 14.2446 10.813 13.7959 10.813C13.4969 10.8125 13.1982 10.8345 12.9022 10.8787C12.6449 10.9137 12.3916 10.9749 12.1462 11.0613L11.921 9.61155C12.0228 9.57871 12.1515 9.54402 12.3052 9.50748C12.459 9.47097 12.627 9.43991 12.8075 9.41071C12.988 9.38151 13.1811 9.35959 13.3812 9.33951C13.5815 9.31944 13.7959 9.31395 14.0015 9.31395ZM14.1445 14.5834C14.3232 14.5834 14.4823 14.5834 14.6414 14.5724C14.7682 14.567 14.8947 14.5548 15.0203 14.5359V13.1629C14.9488 13.1464 14.8416 13.13 14.7004 13.1136C14.4155 13.0772 14.1273 13.0772 13.8424 13.1136C13.7092 13.13 13.5794 13.1682 13.4581 13.2268C13.3527 13.2784 13.2626 13.3578 13.1971 13.4568C13.1306 13.5661 13.0976 13.6933 13.1024 13.822C13.091 13.9365 13.111 14.052 13.1602 14.1556C13.2095 14.2591 13.286 14.3466 13.3812 14.4081C13.6174 14.53 13.8802 14.5878 14.1445 14.5761V14.5834Z" fill="white"/>
<path d="M17.9375 9.69295C18.3191 9.58695 18.7064 9.50404 19.0975 9.44462C19.5907 9.36626 20.0891 9.32782 20.5882 9.3296C21.0369 9.31669 21.4841 9.38847 21.9073 9.54138C22.2311 9.66378 22.5182 9.87018 22.7402 10.1403C22.9507 10.4076 23.1004 10.7195 23.1781 11.0532C23.2693 11.4412 23.3131 11.8392 23.3086 12.2382V15.8333H21.5462V12.4609C21.5462 11.8803 21.4712 11.4695 21.321 11.2285C21.1709 10.9875 20.8909 10.8657 20.481 10.8633C20.354 10.8633 20.22 10.8633 20.0788 10.8816C19.9376 10.8998 19.8107 10.9071 19.6999 10.9236V15.8333H17.9375V9.69295Z" fill="white"/>
<path d="M30.0206 15.6263C29.8633 15.6756 29.6809 15.7212 29.4844 15.765C29.2877 15.8088 29.0643 15.8472 28.8391 15.88C28.6139 15.9129 28.3851 15.9385 28.1527 15.9585C27.9204 15.9787 27.6969 15.9896 27.4843 15.9896C27.0127 15.9989 26.5434 15.921 26.099 15.7595C25.7167 15.6189 25.3694 15.3939 25.082 15.1004C24.802 14.8037 24.588 14.4487 24.4546 14.0597C24.3026 13.6195 24.2282 13.1552 24.2348 12.6884C24.2292 12.2158 24.2931 11.745 24.4242 11.2917C24.5364 10.9062 24.7216 10.547 24.9694 10.2345C25.2035 9.946 25.5012 9.71825 25.8381 9.56989C26.2109 9.41062 26.612 9.33229 27.0159 9.33982C27.2367 9.3368 27.457 9.36131 27.6719 9.41287C27.8728 9.46345 28.069 9.53189 28.2582 9.61734V6.74345L30.0206 6.45312V15.6263ZM26.0347 12.599C26.0114 13.075 26.14 13.546 26.4011 13.941C26.5276 14.1106 26.6931 14.2457 26.883 14.3343C27.0729 14.4228 27.2813 14.4621 27.4896 14.4486C27.6469 14.4486 27.7935 14.4486 27.9275 14.4303C28.0616 14.4121 28.1706 14.4048 28.2582 14.3883V11.1182C28.1244 11.0344 27.9784 10.9728 27.8256 10.9356C27.6509 10.887 27.4705 10.8624 27.2894 10.8626C26.4517 10.8638 26.0335 11.4426 26.0347 12.599Z" fill="white"/>
<path d="M33.5428 9.31395C33.9833 9.30202 34.4229 9.3637 34.844 9.49657C35.1588 9.59751 35.4448 9.77552 35.6769 10.0151C35.8892 10.2474 36.0421 10.5296 36.1219 10.8368C36.2112 11.1878 36.2547 11.5494 36.2507 11.9122V15.6515C35.998 15.7088 35.6471 15.7757 35.1979 15.8524C34.6577 15.9342 34.112 15.972 33.566 15.9656C33.1986 15.9697 32.8319 15.9336 32.4721 15.8578C32.1693 15.793 31.8816 15.669 31.6249 15.4927C31.3933 15.3287 31.2083 15.1051 31.0887 14.8445C30.9529 14.5417 30.8857 14.2116 30.892 13.8786C30.8794 13.5499 30.9522 13.2236 31.1029 12.9328C31.2445 12.6801 31.4461 12.4678 31.6892 12.3157C31.949 12.1576 32.233 12.0453 32.5293 11.9834C32.8521 11.9148 33.1809 11.8806 33.5106 11.8811C33.7142 11.8801 33.9176 11.8905 34.1201 11.9122C34.2661 11.926 34.4108 11.9522 34.5526 11.9907V11.8209C34.5576 11.6868 34.5361 11.553 34.4895 11.4275C34.4428 11.302 34.3719 11.1874 34.2809 11.0905C34.1022 10.908 33.784 10.813 33.3336 10.813C33.0345 10.8124 32.7358 10.8344 32.4399 10.8787C32.182 10.9136 31.9281 10.9747 31.6821 11.0613L31.4569 9.61159C31.5605 9.57871 31.6874 9.54402 31.8412 9.50751C31.9949 9.47101 32.1629 9.43995 32.3452 9.41075C32.5275 9.38151 32.717 9.35962 32.9189 9.33951C33.1209 9.31944 33.3372 9.31395 33.5428 9.31395ZM33.6839 14.5834C33.8627 14.5834 34.0236 14.5834 34.1808 14.5725C34.3077 14.567 34.4342 14.5548 34.5598 14.5359V13.1629C34.454 13.1409 34.3472 13.1245 34.2398 13.1136C34.1105 13.0982 33.9804 13.0902 33.8502 13.0898C33.6936 13.0895 33.5371 13.0999 33.3819 13.1209C33.2487 13.1373 33.1189 13.1756 32.9976 13.2341C32.8926 13.2858 32.8031 13.3652 32.7384 13.4641C32.671 13.5731 32.638 13.7006 32.6437 13.8293C32.6318 13.9437 32.6515 14.0592 32.7004 14.1627C32.7494 14.2663 32.8257 14.3538 32.9207 14.4154C33.1576 14.5345 33.4203 14.5898 33.6839 14.5761V14.5834Z" fill="white"/>
<path d="M41.2266 11.0713C41.0692 11.0311 40.8832 10.9873 40.6707 10.9435C40.4445 10.8984 40.2147 10.8764 39.9842 10.8778C39.8514 10.879 39.7189 10.8888 39.5876 10.907C39.4696 10.9196 39.353 10.9422 39.239 10.9745V15.8332H37.4766V9.80781C37.8432 9.68348 38.2159 9.57927 38.5938 9.49559C39.066 9.39032 39.5488 9.33948 40.0323 9.34403C40.1272 9.34403 40.2397 9.34403 40.374 9.36228C40.5079 9.38058 40.644 9.39152 40.7779 9.40978C40.9118 9.42803 41.046 9.45541 41.1799 9.48279C41.2976 9.50599 41.4123 9.54087 41.523 9.58687L41.2266 11.0713Z" fill="white"/>
<path d="M47.5211 15.6263C47.364 15.6756 47.1816 15.7212 46.9851 15.765C46.7883 15.8088 46.565 15.8472 46.3399 15.88C46.1144 15.9129 45.8857 15.9385 45.6533 15.9585C45.421 15.9787 45.1977 15.9896 44.9849 15.9896C44.5177 15.9974 44.0526 15.9195 43.6122 15.7595C43.23 15.6213 42.8833 15.3968 42.5978 15.1028C42.3119 14.8089 42.0951 14.4529 41.9626 14.0615C41.8103 13.6213 41.7361 13.157 41.7426 12.6903C41.7372 12.2176 41.8008 11.7468 41.9322 11.2935C42.0433 10.9077 42.2286 10.5484 42.4772 10.2363C42.7114 9.94785 43.0089 9.72007 43.3458 9.57171C43.7142 9.41443 44.1102 9.33614 44.5093 9.34163C44.7301 9.33862 44.9505 9.36316 45.1655 9.41469C45.3692 9.46505 45.5683 9.53349 45.7608 9.61916V6.74345L47.5229 6.45312L47.5211 15.6263ZM43.5355 12.599C43.5094 13.074 43.635 13.5448 43.8927 13.941C44.0193 14.1108 44.1847 14.2459 44.3747 14.3345C44.5647 14.4231 44.7732 14.4623 44.9813 14.4486C45.1387 14.4486 45.2853 14.4486 45.4192 14.4303C45.5534 14.4121 45.6624 14.4048 45.75 14.3883V11.1182C45.616 11.0344 45.4702 10.9728 45.3175 10.9356C45.1427 10.887 44.9624 10.8624 44.7811 10.8626C43.9495 10.8638 43.534 11.4426 43.5355 12.599Z" fill="white"/>
<path d="M56.0957 14.2088V15.8284H50.6172V7.45312H52.4636V14.2088H56.0957Z" fill="white"/>
<path d="M58.8881 7.63478C58.8953 7.78038 58.8707 7.92577 58.8164 8.06057C58.7618 8.19533 58.6789 8.31617 58.5736 8.41442C58.3687 8.59693 58.1063 8.69748 57.8346 8.69748C57.5628 8.69748 57.3004 8.59693 57.0955 8.41442C56.9902 8.31609 56.9077 8.19519 56.8534 8.06039C56.7995 7.92562 56.7753 7.78028 56.7825 7.63478C56.7753 7.48933 56.7995 7.34398 56.8534 7.20918C56.9077 7.07442 56.9902 6.95351 57.0955 6.85515C57.2997 6.67159 57.5624 6.57031 57.8346 6.57031C58.1067 6.57031 58.3694 6.67159 58.5736 6.85515C58.6789 6.9534 58.7618 7.07424 58.8164 7.20904C58.8707 7.3438 58.8953 7.48918 58.8881 7.63478ZM58.7219 15.8293H56.9595V9.47162H58.7219V15.8293Z" fill="white"/>
<path d="M62.5254 6.45326C62.8319 6.45071 63.1381 6.48504 63.437 6.55551C63.6542 6.60573 63.8677 6.67289 64.0751 6.75635L63.732 8.19329C63.5666 8.1206 63.394 8.06729 63.217 8.03446C63.0476 7.99947 62.8754 7.98111 62.7024 7.97969C62.5196 7.97508 62.3376 8.00606 62.166 8.07097C62.0332 8.12253 61.9152 8.20726 61.8229 8.31747C61.7375 8.42817 61.6764 8.55649 61.6442 8.69358C61.6073 8.84773 61.5892 9.00598 61.5906 9.16467V9.47871H63.7675V10.9741H61.5906V15.8327H59.8281V9.12998C59.8281 8.30711 60.0547 7.65406 60.5074 7.17082C60.9602 6.68758 61.6329 6.44838 62.5254 6.45326Z" fill="white"/>
<path d="M64.1336 12.7013C64.1235 12.1954 64.2103 11.6924 64.3891 11.2205C64.5426 10.8252 64.7724 10.4656 65.0648 10.1633C65.3355 9.8856 65.6594 9.66749 66.0159 9.52247C66.3662 9.38273 66.739 9.31149 67.115 9.31251C67.998 9.31251 68.6961 9.58884 69.2097 10.1415C69.7236 10.6941 69.9795 11.5054 69.9784 12.5753C69.9784 12.6812 69.9784 12.7963 69.9661 12.9204C69.9534 13.0445 69.9516 13.1559 69.9425 13.2527H65.9442C65.9598 13.4291 66.0137 13.5997 66.1016 13.7523C66.19 13.9048 66.3101 14.0354 66.4538 14.1346C66.8124 14.3696 67.2344 14.4839 67.66 14.4614C67.9799 14.4615 68.2988 14.4309 68.6129 14.3701C68.8746 14.3251 69.1304 14.2503 69.3762 14.1474L69.6121 15.6081C69.4898 15.6667 69.3631 15.7149 69.2332 15.7523C69.0606 15.8051 68.8851 15.8477 68.7077 15.8801C68.5127 15.9167 68.3071 15.9459 68.0856 15.9696C67.8652 15.9945 67.6441 16.0067 67.4226 16.0061C66.9228 16.0161 66.4259 15.9281 65.9587 15.7468C65.5696 15.5959 65.2179 15.359 64.9291 15.053C64.6544 14.7543 64.4481 14.3969 64.3251 14.0068C64.194 13.5847 64.1296 13.1441 64.1336 12.7013ZM68.2821 12.0129C68.2749 11.8612 68.2488 11.7109 68.2054 11.5656C68.1638 11.4242 68.095 11.2926 68.0035 11.1785C67.9094 11.0623 67.7925 10.9676 67.66 10.901C67.4997 10.8228 67.3231 10.7852 67.1454 10.7915C66.9706 10.7868 66.7972 10.8223 66.6376 10.8955C66.5008 10.9589 66.3789 11.0517 66.2804 11.1676C66.1834 11.2827 66.1092 11.416 66.0622 11.5601C66.0108 11.7071 65.9732 11.8587 65.9496 12.0129H68.2821Z" fill="white"/>
</g>
</g>
<defs>
<clipPath id="clip0_2034_1143">
<rect width="76" height="16" fill="white"/>
</clipPath>
</defs>
</svg>
